
<svg xmlns="http://www.w3.org/2000/svg" viewBox="0 0 48 48" width="48px" height="48px">
    <path fill="#0072c6" d="M15.5,17.2c-2.4-1.2-5.1-1.8-7.9-1.8C4,15.4,1,16.8,1,19.8c0,2.1,1.9,3.5,4.5,4.3c2.6,0.8,3.9,1.5,3.9,2.6c0,1.3-1.4,2.2-3.6,2.2c-2.8,0-5.1-0.9-7.1-2.1L1,30.4c2.5,1.5,5.6,2.4,9.1,2.4c4,0,7.8-1.5,7.8-5c0-2.5-1.9-4-5-5.2c-2.4-0.9-4.2-1.6-4.2-2.8c0-1.1,1.2-1.9,3.4-1.9c2.4,0,4.6,0.8,6.4,1.8L15.5,17.2z"/>
    <path fill="#0072c6" d="M26.2,17c-2.4-0.6-5.1-0.9-8-0.9c-5.1,0-8.8,1.7-8.8,4.7c0,3.3,4.2,5,9.4,5c2.1,0,4.2-0.2,6-0.6V29c-2.1,0.9-4.7,1.4-7.4,1.4c-6.1,0-10.7-2.4-10.7-6.8c0-4.3,4.5-7.3,11.2-7.3c2.4,0,4.8,0.4,7,1V17z M25.8,21.5c-1.3-0.5-2.9-0.7-4.7-0.7c-3.7,0-5.8,1.3-5.8,3.1c0,1.9,2.3,2.9,5.7,2.9c1.9,0,3.5-0.2,4.8-0.6V21.5z"/>
    <path fill="#0072c6" d="M47,21.3c0-3.6-3.7-6.1-9.6-6.1c-5.9,0-9.6,2.5-9.6,6.1c0,3.6,3.7,6.1,9.6,6.1C43.3,27.4,47,24.9,47,21.3z M37.9,25.2c-3.7,0-6.1-1.7-6.1-3.9c0-2.2,2.4-3.9,6.1-3.9s6.1,1.7,6.1,3.9C44,23.5,41.6,25.2,37.9,25.2z"/>
</svg>
